<svg xmlns="http://www.w3.org/2000/svg" width="64" height="64" viewBox="0 0 64 64">
    <g fill="none" fill-rule="evenodd">
        <path fill="#F99922" d="M41.595 15.98C55.144 29.524 59.217 39.516 55.317 47.31 46.742 64.45 2.65 45.015 14.804 20.164 17.97 13.69 28.807 3.198 41.595 15.98z"/>
        <g>
            <path fill="#FFF" d="M17 0L17 10 27 10" transform="translate(17 15)"/>
            <g stroke="#0C3636" stroke-width="2">
                <path d="M17 0L17 10 27 10" transform="translate(17 15)"/>
                <path d="M27 29.881L27 35 0 35 0 0 17 0 27 10 27 20.422" transform="translate(17 15)"/>
            </g>
            <path fill="#FFF" d="M10.089 29.881L30.831 29.881 30.831 20.422 10.089 20.422z" transform="translate(17 15)"/>
            <path stroke="#0C3636" stroke-width="2" d="M10.089 29.881L30.831 29.881 30.831 20.422 10.089 20.422z" transform="translate(17 15)"/>
        </g>
    </g>
</svg>
