<svg xmlns="http://www.w3.org/2000/svg" xmlns:xlink="http://www.w3.org/1999/xlink" width="64" height="64" viewBox="0 0 64 64">
    <defs>
        <path id="prefix__a" d="M0 0.04L3.96 0.04 3.96 4 0 4z"/>
        <path id="prefix__c" d="M0 0.794L3.96 0.794 3.96 4.754 0 4.754z"/>
    </defs>
    <g fill="none" fill-rule="evenodd">
        <path fill="#30ADAD" d="M57.57 12.6l.3.322c4.937 5.415 10.526 18.792-5.533 26.285-17.36 8.1-28.142 8.509-34.132 2.18C5.029 27.464 38.373-7.32 57.57 12.6z"/>
        <g>
            <path fill="#FFF" d="M33.999 25.696c.907-4.998-2.59-10.04-3.75-12.745-.727-1.695.121-3.555 2.182-4.152 1.448-.42 4.702.144 4.702 4.777 0 1.799-1.382 6.577-3.134 12.12M17.426 15.286l6.111-.011 6.71 22.107c-.635 1.856-1.238 3.48-1.675 4.74l-2.739.72-8.407-27.556zM4.618 15.286l6.11-.011 6.71 22.107c-.634 1.856-1.237 3.48-1.674 4.74l-3.226-.876-7.92-25.96z" transform="translate(9 9.819)"/>
            <path stroke="#0C3636" stroke-linecap="square" stroke-width="2" d="M42.226 22.962c0 11.192-9.073 20.264-20.265 20.264-11.191 0-20.264-9.072-20.264-20.264S10.77 2.698 21.961 2.698c11.192 0 20.265 9.072 20.265 20.264z" transform="translate(9 9.819)"/>
            <path stroke="#0C3636" stroke-width="2" d="M33.763 26.548c1.749-5.408-2.265-10.686-3.513-13.597-.727-1.695.12-3.555 2.18-4.153 1.45-.419 4.704.145 4.704 4.778 0 3.748-6.224 21.712-8.597 28.546M16.177 42.455c.94-2.63 3.375-9.631 5.02-14.7M25.799 42.843L17.279 14.907" transform="translate(9 9.819)"/>
            <path stroke="#0C3636" stroke-width="2" d="M14.275 15.275L23.503 15.275 30.248 37.393M4.412 14.907L12.407 41.121M4.492 15.275L10.635 15.275 17.564 37.998" transform="translate(9 9.819)"/>
            <path fill="#0C3636" d="M43.772 43.226c0 1.094-.886 1.98-1.98 1.98-1.093 0-1.98-.886-1.98-1.98 0-1.093.887-1.98 1.98-1.98s1.98.887 1.98 1.98" transform="translate(9 9.819)"/>
            <g transform="translate(9 9.819) translate(0 41.206)">
                <mask id="prefix__b" fill="#fff">
                    <use xlink:href="#prefix__a"/>
                </mask>
                <path fill="#0C3636" d="M3.96 2.02C3.96 3.114 3.074 4 1.98 4 .887 4 0 3.114 0 2.02 0 .927.887.04 1.98.04c1.094 0 1.98.887 1.98 1.98" mask="url(#prefix__b)"/>
            </g>
            <path fill="#0C3636" d="M43.772 2.98c0 1.093-.886 1.98-1.98 1.98-1.093 0-1.98-.887-1.98-1.98 0-1.094.887-1.98 1.98-1.98s1.98.886 1.98 1.98" transform="translate(9 9.819)"/>
            <g transform="translate(9 9.819) translate(0 .206)">
                <mask id="prefix__d" fill="#fff">
                    <use xlink:href="#prefix__c"/>
                </mask>
                <path fill="#0C3636" d="M3.96 2.774c0 1.093-.886 1.98-1.98 1.98C.887 4.754 0 3.867 0 2.774 0 1.68.887.794 1.98.794c1.094 0 1.98.886 1.98 1.98" mask="url(#prefix__d)"/>
            </g>
        </g>
    </g>
</svg>
