<svg xmlns="http://www.w3.org/2000/svg" width="64" height="64" viewBox="0 0 64 64">
    <g fill="none" fill-rule="evenodd">
        <path fill="#E84E4E" d="M40.219 40.275c-16.752 9.29-27.48 10.451-33.897 4.555-14.115-12.969 16.721-49.995 37.26-31.462 5.35 4.828 12.45 18.137-3.363 26.907z"/>
        <g>
            <path fill="#FFF" d="M20.072 30.535l-3.805 10.803-2.594-.913c-2.983-1.051-4.55-4.321-3.499-7.304 1.05-2.983 4.32-4.55 7.303-3.5l2.595.914zM34 24.696c.906-4.998-2.59-10.04-3.75-12.745-.728-1.695.12-3.555 2.181-4.152 1.448-.42 4.702.144 4.702 4.777 0 1.799-1.382 6.577-3.134 12.12" transform="translate(10 10)"/>
            <path stroke="#0C3636" stroke-width="2" d="M33.763 25.548c1.748-5.408-2.265-10.686-3.514-13.597-.726-1.695.12-3.555 2.182-4.153 1.449-.419 4.702.145 4.702 4.778 0 3.748-6.223 21.712-8.596 28.546M20.601 24.809L17.28 13.908" transform="translate(10 10)"/>
            <path stroke="#0C3636" stroke-width="2" d="M1.786 20.052C2.748 9.756 11.414 1.698 21.962 1.698c11.192 0 20.264 9.072 20.264 20.264 0 9.878-7.07 18.096-16.425 19.89" transform="translate(10 10)"/>
            <path stroke="#0C3636" stroke-width="2" d="M14.275 14.275L23.503 14.275 30.248 36.393M4.412 13.907L8.73 28.076M4.492 14.275L10.635 14.275 14.317 26.36" transform="translate(10 10)"/>
            <path fill="#0C3636" d="M43.772 42.226c0 1.094-.886 1.98-1.98 1.98-1.094 0-1.98-.886-1.98-1.98 0-1.093.886-1.98 1.98-1.98 1.094 0 1.98.887 1.98 1.98M3.96 42.226c0 1.094-.887 1.98-1.98 1.98-1.094 0-1.98-.886-1.98-1.98 0-1.093.886-1.98 1.98-1.98 1.093 0 1.98.887 1.98 1.98M43.772 1.98c0 1.093-.886 1.98-1.98 1.98-1.094 0-1.98-.887-1.98-1.98 0-1.094.886-1.98 1.98-1.98 1.094 0 1.98.886 1.98 1.98M3.96 1.98c0 1.093-.887 1.98-1.98 1.98C.886 3.96 0 3.073 0 1.98 0 .886.886 0 1.98 0c1.093 0 1.98.886 1.98 1.98" transform="translate(10 10)"/>
            <path stroke="#0C3636" stroke-linecap="round" stroke-width="2" d="M21.704 40.437L17.147 38.807M23.476 34.793L19.18 33.256" transform="translate(10 10)"/>
            <path stroke="#0C3636" stroke-width="2" d="M11.576 30.93l-.235-.083c-1.32-.464-2.765.23-3.23 1.547-.464 1.32.229 2.765 1.548 3.23l.23.08" transform="translate(10 10)"/>
            <path stroke="#0C3636" stroke-width="2" d="M16.268 41.338l-2.595-.914c-2.983-1.05-4.55-4.32-3.5-7.303 1.052-2.984 4.322-4.551 7.305-3.5l2.595.914" transform="translate(10 10)"/>
            <path stroke="#0C3636" stroke-linecap="round" stroke-width="2" d="M15.732 42.803L20.843 28.549" transform="translate(10 10)"/>
            <path stroke="#0C3636" stroke-width="2" d="M9.278 32.833c-3.864-1.361-8.3-4.683-7.482-12.78" transform="translate(10 10)"/>
        </g>
    </g>
</svg>
