<svg xmlns="http://www.w3.org/2000/svg" width="64" height="64" viewBox="0 0 64 64">
    <g fill="none" fill-rule="evenodd">
        <path fill="#44AEDE" d="M46.276 34.514l-.701.956c-10.94 14.774-19.96 20.075-28.095 17.498C-.793 47.18 11.506.591 37.953 8.708c6.889 2.113 18.948 11.175 8.323 25.806z"/>
        <g>
            <path fill="#FFF" d="M17 0L17 10 27 10" transform="translate(20 16)"/>
            <path stroke="#0C3636" stroke-width="2" d="M17 0L17 10 27 10" transform="translate(20 16)"/>
            <path stroke="#0C3636" stroke-width="2" d="M27 29.881L27 35 0 35 0 0 17 0 27 10 27 20.422" transform="translate(20 16)"/>
            <g>
                <path stroke="#0C3636" stroke-width="2" d="M18.375 9.422L30.831 9.422 30.831 18.881 22.976 18.881" transform="translate(20 16) translate(0 11)"/>
                <path fill="#FFF" d="M18.375 9.23l-3.804 10.802-2.595-.913c-2.983-1.052-4.55-4.322-3.499-7.304 1.05-2.983 4.32-4.55 7.303-3.5l2.595.915z" transform="translate(20 16) translate(0 11)"/>
                <path stroke="#0C3636" stroke-linecap="round" stroke-width="2" d="M20.006 19.131L15.449 17.501M21.779 13.487L17.483 11.95" transform="translate(20 16) translate(0 11)"/>
                <path stroke="#0C3636" stroke-width="2" d="M9.879 9.624l-.236-.083c-1.32-.463-2.764.23-3.228 1.547-.465 1.32.228 2.766 1.547 3.23l.23.08" transform="translate(20 16) translate(0 11)"/>
                <path stroke="#0C3636" stroke-width="2" d="M14.57 20.032l-2.594-.914c-2.983-1.05-4.55-4.32-3.5-7.303 1.052-2.984 4.32-4.55 7.304-3.5l2.595.914" transform="translate(20 16) translate(0 11)"/>
                <path stroke="#0C3636" stroke-linecap="round" stroke-width="2" d="M14.035 21.498L19.146 7.244" transform="translate(20 16) translate(0 11)"/>
                <path stroke="#0C3636" stroke-width="2" d="M7.58 11.527C4.024 10.274-.017 7.36 0 .587" transform="translate(20 16) translate(0 11)"/>
            </g>
        </g>
    </g>
</svg>
