<svg xmlns="http://www.w3.org/2000/svg" width="230" height="200" viewBox="0 0 230 200">
    <g fill="none" fill-rule="evenodd">
        <path fill="#0C3636" d="M68.5 92.507C48.89 81.185 42.171 56.11 53.493 36.5 64.815 16.89 89.89 10.171 109.5 21.493c19.61 11.322 26.329 36.397 15.007 56.007C113.185 97.11 88.11 103.829 68.5 92.507" transform="translate(27 43)"/>
        <path fill="#FFF" d="M90.637 67.01c-1.684-2.283-1.2-5.49 1.081-7.166l9.466-6.952c2.281-1.675 5.495-1.183 7.18 1.099 1.683 2.282 1.2 5.49-1.082 7.165l-9.466 6.952c-2.281 1.675-5.495 1.183-7.18-1.099M77.637 50.01c-1.684-2.283-1.2-5.49 1.081-7.166l9.466-6.952c2.281-1.675 5.495-1.183 7.18 1.099 1.683 2.282 1.2 5.49-1.082 7.165l-9.466 6.952c-2.281 1.675-5.496 1.183-7.18-1.099" transform="translate(27 43)"/>
        <path fill="#2D97C8" d="M123.423 18.65l-5.91 4.415 10.057 13.868 5.91-4.415c2.384-1.781 2.92-5.154 1.195-7.533l-3.81-5.254c-1.725-2.379-5.057-2.863-7.442-1.081" transform="translate(27 43)"/>
        <path fill="#44AEDE" d="M92.014 28.385l8.328-6.152c8.13-6.004 19.55-4.287 25.51 3.838l1.246 1.698c5.96 8.124 4.201 19.577-3.928 25.582l-8.328 6.152-22.828-31.118z" transform="translate(27 43)"/>
        <path fill="#2D97C8" d="M85.409 27.141c2.296-1.693 5.525-1.206 7.212 1.09l23.074 31.404c1.687 2.296 1.193 5.53-1.104 7.224-2.296 1.694-5.526 1.205-7.212-1.09L84.305 34.365c-1.687-2.296-1.193-5.53 1.104-7.224M126.311 20.397c11.138-8.173 28.845-14.201 49.95 3.483l-6.568 7.815c-13.026-10.914-25.226-11.915-37.296-3.058l-6.086-8.24zM116.834 26.857c1.37-1.04 3.267-.78 4.24.582l3.815 5.354c.97 1.363.647 3.31-.723 4.35-1.37 1.042-3.268.78-4.238-.582l-3.817-5.354c-.97-1.362-.647-3.31.723-4.35M105.675 29.454c1.311-.96 3.162-.675 4.133.638l9.133 12.34c.97 1.312.695 3.154-.616 4.114s-3.162.675-4.133-.638l-9.132-12.339c-.972-1.313-.696-3.155.615-4.115" transform="translate(27 43)"/>
        <path fill="#E08103" d="M7.307 78.305C20.333 89.22 32.532 90.22 44.603 81.363l6.086 8.24C39.551 97.775 21.844 103.804.739 86.12l6.568-7.815zM53.577 92.35l5.91-4.414L49.43 74.067l-5.91 4.415c-2.384 1.782-2.92 5.154-1.195 7.533l3.81 5.254c1.725 2.379 5.057 2.863 7.442 1.081" transform="translate(27 43)"/>
        <path fill="#F99922" d="M83.986 82.615l-8.328 6.152c-8.13 6.004-19.55 4.287-25.51-3.837l-1.246-1.699c-5.96-8.124-4.201-19.577 3.928-25.582l8.328-6.152 22.828 31.118z" transform="translate(27 43)"/>
        <path fill="#E08103" d="M90.591 84.859c-2.296 1.693-5.525 1.206-7.212-1.09L60.305 52.365c-1.687-2.296-1.193-5.53 1.104-7.224 2.296-1.694 5.526-1.205 7.213 1.09l23.073 31.404c1.687 2.296 1.193 5.53-1.104 7.224M60.166 84.144c-1.37 1.04-3.267.779-4.24-.583l-3.815-5.354c-.97-1.363-.647-3.31.723-4.35 1.37-1.042 3.267-.78 4.239.582l3.815 5.354c.972 1.362.648 3.31-.722 4.35M70.325 81.546c-1.31.96-3.162.675-4.133-.638l-9.133-12.34c-.971-1.312-.695-3.154.616-4.114s3.162-.675 4.133.638l9.133 12.34c.971 1.312.695 3.154-.616 4.114" transform="translate(27 43)"/>
    </g>
</svg>
