<svg width="580" height="430" viewBox="0 0 580 430" fill="none" xmlns="http://www.w3.org/2000/svg">
<g clip-path="url(#clip0_2305_5332)">
<rect x="231.656" y="148.855" width="126.089" height="126.089" fill="#D82828"/>
<path d="M293.699 241.717C310.167 241.717 323.516 228.368 323.516 211.901C323.516 195.433 310.167 182.084 293.699 182.084C277.232 182.084 263.883 195.433 263.883 211.901C263.883 228.368 277.232 241.717 293.699 241.717Z" stroke="white" stroke-width="3.76384" stroke-miterlimit="10" stroke-linecap="square"/>
<path d="M301.727 238.275C306.074 225.831 314.35 200.71 314.35 197.164C314.35 188.234 306.519 186.9 303.538 190.604C296.978 198.733 311.431 208.384 308.104 219.51" stroke="white" stroke-width="3.76384" stroke-miterlimit="10"/>
<path d="M301.713 239.42L289.555 199.426" stroke="white" stroke-width="3.76384" stroke-miterlimit="10"/>
<path d="M285.484 239.501C286.881 235.609 291.853 221.681 294.285 214.18" stroke="white" stroke-width="3.76384" stroke-miterlimit="10"/>
<path d="M283.336 201.004H291.747" stroke="white" stroke-width="3.76384" stroke-miterlimit="10"/>
<path d="M285.493 237.742L274.407 199.482" stroke="white" stroke-width="3.76384" stroke-miterlimit="10"/>
<path d="M266.531 201.004H276.622" stroke="white" stroke-width="3.76384" stroke-miterlimit="10"/>
<g filter="url(#filter0_d_2305_5332)">
<rect x="204.375" y="35" width="201.365" height="126.089" fill="#6479C3"/>
<path d="M298.987 87.7892L306.807 95.6093C307.441 96.2431 307.797 97.1028 307.797 97.9992H297.797C297.134 97.9992 296.597 97.462 296.597 96.7992V86.7992C297.493 86.7992 298.353 87.1553 298.987 87.7892Z" fill="white" fill-opacity="0.3"/>
<path d="M296.597 86.7992V86.7992C297.493 86.7992 298.353 87.1553 298.987 87.7892L306.807 95.6093C307.441 96.2431 307.797 97.1028 307.797 97.9992V97.9992M296.597 86.7992H283.397C281.409 86.7992 279.797 88.411 279.797 90.3992L279.797 119.599C279.797 121.587 281.409 123.199 283.397 123.199H303.597M296.597 86.7992V96.7992C296.597 97.462 297.134 97.9992 297.797 97.9992H307.797M307.797 97.9992V100.799" stroke="white" stroke-width="2.4" stroke-linecap="round" stroke-linejoin="round"/>
<path d="M310.19 73.7907L318.01 81.6108C318.644 82.2447 319 83.1044 319 84.0008H309C308.337 84.0008 307.8 83.4635 307.8 82.8008V72.8008C308.696 72.8008 309.556 73.1569 310.19 73.7907Z" fill="white" fill-opacity="0.3"/>
<path d="M319 93.8008V84.0008M307.8 72.8008V72.8008C308.696 72.8008 309.556 73.1569 310.19 73.7907L318.01 81.6108C318.644 82.2447 319 83.1044 319 84.0008V84.0008M307.8 72.8008H294.6C292.612 72.8008 291 74.4126 291 76.4008V86.8008M307.8 72.8008V82.8008C307.8 83.4635 308.337 84.0008 309 84.0008H319" stroke="white" stroke-width="2.4" stroke-linecap="round" stroke-linejoin="round"/>
<path d="M285.406 105H296.606" stroke="white" stroke-opacity="0.5" stroke-width="2.4" stroke-linecap="round"/>
<path d="M285.406 110.602H293.806" stroke="white" stroke-opacity="0.5" stroke-width="2.4" stroke-linecap="round"/>
<path d="M285.406 116.199H296.606" stroke="white" stroke-opacity="0.5" stroke-width="2.4" stroke-linecap="round"/>
<path fill-rule="evenodd" clip-rule="evenodd" d="M316.203 118.301L307.974 122.627L309.546 113.464L302.888 106.975L312.089 105.638L316.203 97.3008L320.318 105.638L329.518 106.975L322.861 113.464L324.432 122.627L316.203 118.301Z" fill="white" stroke="white" stroke-width="2.4" stroke-linejoin="round"/>
</g>
<g filter="url(#filter1_d_2305_5332)">
<rect x="343.633" y="124.391" width="201.365" height="126.089" fill="#6479C3"/>
<path d="M421.594 196.002C421.594 197.99 423.206 199.602 425.194 199.602H462.794C464.782 199.602 466.394 197.99 466.394 196.002V165.402C466.394 163.413 464.782 161.802 462.794 161.802H425.194C423.206 161.802 421.594 163.413 421.594 165.402V196.002Z" stroke="white" stroke-width="2.4"/>
<path d="M421.594 194L430.204 186.052C431.643 184.724 433.88 184.79 435.239 186.201L437.541 188.591C439.004 190.111 441.454 190.052 442.843 188.465L450.007 180.281C451.438 178.648 453.978 178.642 455.415 180.27L466.394 192.708" stroke="white" stroke-width="2.4"/>
<circle cx="434.2" cy="173.7" r="4.2" fill="white" fill-opacity="0.12" stroke="white" stroke-width="2.4"/>
<circle cx="430.703" cy="208.699" r="3.5" fill="white" stroke="white" stroke-width="2.4"/>
<circle cx="444.703" cy="208.699" r="3.5" stroke="white" stroke-opacity="0.5" stroke-width="2.4"/>
<circle cx="458.703" cy="208.699" r="3.5" stroke="white" stroke-opacity="0.5" stroke-width="2.4"/>
</g>
<g filter="url(#filter2_d_2305_5332)">
<rect x="35" y="165.793" width="201.365" height="126.089" fill="#6479C3"/>
<rect x="110.797" y="203.801" width="50.4" height="50.4" rx="5.6" stroke="white" stroke-opacity="0.5" stroke-width="2.8"/>
<path d="M117.805 212.199H137.405V223.399L130.405 226.199L126.205 231.799H117.805V212.199Z" fill="white" fill-opacity="0.12"/>
<path d="M137.398 224.8V215.7C137.398 213.38 135.518 211.5 133.198 211.5H120.598C118.279 211.5 116.398 213.38 116.398 215.7V228.3C116.398 230.62 118.279 232.5 120.598 232.5H125.077" stroke="white" stroke-width="2.8" stroke-linecap="round" stroke-linejoin="round"/>
<path d="M144.586 219.229L135.798 234.607C135.265 235.54 135.939 236.702 137.014 236.702H154.589C155.664 236.702 156.338 235.54 155.805 234.607L147.017 219.229C146.48 218.288 145.123 218.288 144.586 219.229Z" fill="white" stroke="white" stroke-width="2.8" stroke-linejoin="round"/>
<path d="M140.604 225.789C138.4 224.796 135.933 224.543 133.574 225.068C131.214 225.592 129.087 226.867 127.511 228.7C125.936 230.533 124.995 232.827 124.831 235.238C124.666 237.65 125.286 240.05 126.599 242.081C127.911 244.111 129.845 245.662 132.111 246.502C134.378 247.343 136.856 247.427 139.174 246.743C141.493 246.059 143.528 244.643 144.975 242.707C146.282 240.958 147.047 238.87 147.183 236.701" stroke="white" stroke-width="2.8"/>
</g>
<g filter="url(#filter3_d_2305_5332)">
<rect x="323.047" y="242.307" width="201.365" height="126.089" fill="#6479C3"/>
<path d="M449.197 313.401H432.397M432.397 313.401L415.597 313.401M432.397 313.401L432.397 330.201M432.397 313.401V296.601M415.597 313.401H398.797M415.597 313.401L415.597 330.201M415.597 313.401L415.597 296.601M415.597 296.601L415.597 279.801M415.597 296.601L432.397 296.601M415.597 296.601L398.797 296.601M432.397 296.601V279.801M432.397 296.601L449.197 296.601M402.997 330.201H444.997C447.316 330.201 449.197 328.32 449.197 326.001V284.001C449.197 281.681 447.316 279.801 444.997 279.801H402.997C400.677 279.801 398.797 281.681 398.797 284.001V326.001C398.797 328.32 400.677 330.201 402.997 330.201Z" stroke="white" stroke-opacity="0.5" stroke-width="2.8"/>
<rect x="418.406" y="299.398" width="28" height="28" rx="2.8" fill="white"/>
</g>
<g filter="url(#filter4_d_2305_5332)">
<rect x="176.141" y="268.357" width="201.365" height="126.089" fill="#6479C3"/>
<path d="M256 307.199H286.8V329.599H256V307.199Z" fill="white" fill-opacity="0.12"/>
<path d="M260.139 322.777L254.594 329.602H288.194V329.574C288.194 328.749 287.951 327.943 287.496 327.255L281.444 318.113C279.779 315.599 276.086 315.606 274.431 318.127L271.358 322.806C270.024 324.838 267.068 324.904 265.645 322.934C264.308 321.083 261.578 321.005 260.139 322.777Z" fill="white"/>
<rect x="254.594" y="305.801" width="33.6" height="39.2" rx="4.2" stroke="white" stroke-width="2.8"/>
<path d="M291.003 311.398V311.398C292.55 311.398 293.803 312.652 293.803 314.198V346.398C293.803 348.718 291.923 350.598 289.603 350.598H263.003C261.457 350.598 260.203 349.345 260.203 347.798V347.798" stroke="white" stroke-width="2.8"/>
<path d="M296.597 317V317C298.143 317 299.397 318.254 299.397 319.8V352C299.397 354.32 297.516 356.2 295.197 356.2H268.597C267.05 356.2 265.797 354.946 265.797 353.4V353.4" stroke="white" stroke-width="2.8"/>
<circle cx="264.394" cy="314.198" r="2.8" fill="white"/>
<path d="M260.203 334.5H271.403" stroke="white" stroke-width="2.8" stroke-linecap="round"/>
<path d="M260.203 338.699H268.603" stroke="white" stroke-width="2.8" stroke-linecap="round"/>
</g>
<g filter="url(#filter5_d_2305_5332)">
<rect x="51" y="61.3477" width="201.365" height="126.089" fill="#6479C3"/>
<rect x="126.797" y="98.8008" width="50.4" height="50.4" rx="4.2" stroke="white" stroke-width="2.8"/>
<path d="M128.195 105.799H132.395" stroke="white" stroke-opacity="0.3" stroke-width="2.8"/>
<path d="M135.195 105.799H139.395" stroke="white" stroke-opacity="0.3" stroke-width="2.8"/>
<path d="M142.195 105.799H146.395" stroke="white" stroke-opacity="0.3" stroke-width="2.8"/>
<path d="M149.195 105.799H153.395" stroke="white" stroke-opacity="0.3" stroke-width="2.8"/>
<path d="M156.195 105.799H160.395" stroke="white" stroke-opacity="0.3" stroke-width="2.8"/>
<path d="M163.195 105.799H167.395" stroke="white" stroke-opacity="0.3" stroke-width="2.8"/>
<path d="M170.195 105.799H174.395" stroke="white" stroke-opacity="0.3" stroke-width="2.8"/>
<rect x="152" y="122.6" width="12.6" height="14" rx="1.4" fill="white" fill-opacity="0.5"/>
<rect x="138" y="125.4" width="11.2" height="14" rx="1.4" fill="white" fill-opacity="0.5"/>
<path d="M166.003 140.801H153.743C152.629 140.801 151.561 141.243 150.773 142.031L150.433 142.371C149.646 143.158 148.577 143.601 147.463 143.601H146.403M135.203 143.601H146.403M146.403 143.601V146.401" stroke="white" stroke-opacity="0.5" stroke-width="2.8" stroke-linecap="square"/>
<path d="M132.398 149.2V132.4C132.398 124.668 138.666 118.4 146.398 118.4H168.798M177.198 118.4H168.798M168.798 118.4V149.2" stroke="white" stroke-width="2.8"/>
<mask id="path-56-inside-1_2305_5332" fill="white">
<path fill-rule="evenodd" clip-rule="evenodd" d="M158.298 129.6C159.498 129.6 166.698 118.718 166.698 111.464C166.698 106.789 162.938 103 158.298 103C153.659 103 149.898 106.789 149.898 111.464C149.898 118.718 157.098 129.6 158.298 129.6ZM158.302 114.487C159.958 114.487 161.302 113.134 161.302 111.464C161.302 109.795 159.958 108.441 158.302 108.441C156.645 108.441 155.302 109.795 155.302 111.464C155.302 113.134 156.645 114.487 158.302 114.487Z"/>
</mask>
<path fill-rule="evenodd" clip-rule="evenodd" d="M158.298 129.6C159.498 129.6 166.698 118.718 166.698 111.464C166.698 106.789 162.938 103 158.298 103C153.659 103 149.898 106.789 149.898 111.464C149.898 118.718 157.098 129.6 158.298 129.6ZM158.302 114.487C159.958 114.487 161.302 113.134 161.302 111.464C161.302 109.795 159.958 108.441 158.302 108.441C156.645 108.441 155.302 109.795 155.302 111.464C155.302 113.134 156.645 114.487 158.302 114.487Z" fill="white"/>
<path d="M163.898 111.464C163.898 114.367 162.385 118.388 160.482 121.926C159.561 123.64 158.621 125.108 157.871 126.114C157.49 126.626 157.202 126.961 157.024 127.138C156.93 127.232 156.927 127.221 157.006 127.168C157.047 127.14 157.158 127.066 157.33 126.993C157.487 126.926 157.83 126.8 158.298 126.8V132.4C159.272 132.4 159.973 131.923 160.175 131.784C160.491 131.568 160.766 131.316 160.984 131.098C161.43 130.652 161.9 130.08 162.363 129.458C163.301 128.198 164.386 126.492 165.415 124.578C167.412 120.862 169.498 115.815 169.498 111.464H163.898ZM158.298 105.8C161.371 105.8 163.898 108.316 163.898 111.464H169.498C169.498 105.263 164.504 100.2 158.298 100.2V105.8ZM152.698 111.464C152.698 108.316 155.226 105.8 158.298 105.8V100.2C152.093 100.2 147.098 105.263 147.098 111.464H152.698ZM158.298 126.8C158.766 126.8 159.11 126.926 159.267 126.993C159.439 127.066 159.55 127.14 159.591 127.168C159.669 127.221 159.667 127.232 159.573 127.138C159.395 126.961 159.107 126.626 158.726 126.114C157.976 125.108 157.036 123.64 156.115 121.926C154.212 118.388 152.698 114.367 152.698 111.464H147.098C147.098 115.815 149.185 120.862 151.182 124.578C152.211 126.492 153.296 128.198 154.234 129.458C154.696 130.08 155.167 130.652 155.613 131.098C155.831 131.316 156.106 131.568 156.421 131.784C156.624 131.923 157.325 132.4 158.298 132.4V126.8ZM158.502 111.464C158.502 111.607 158.392 111.687 158.302 111.687V117.287C161.525 117.287 164.102 114.66 164.102 111.464H158.502ZM158.302 111.241C158.392 111.241 158.502 111.321 158.502 111.464H164.102C164.102 108.268 161.525 105.641 158.302 105.641V111.241ZM158.102 111.464C158.102 111.321 158.211 111.241 158.302 111.241V105.641C155.078 105.641 152.502 108.268 152.502 111.464H158.102ZM158.302 111.687C158.211 111.687 158.102 111.607 158.102 111.464H152.502C152.502 114.66 155.078 117.287 158.302 117.287V111.687Z" fill="white" mask="url(#path-56-inside-1_2305_5332)"/>
</g>
</g>
<defs>
<filter id="filter0_d_2305_5332" x="170.5" y="4.88931" width="269.116" height="193.837" filterUnits="userSpaceOnUse" color-interpolation-filters="sRGB">
<feFlood flood-opacity="0" result="BackgroundImageFix"/>
<feColorMatrix in="SourceAlpha" type="matrix" values="0 0 0 0 0 0 0 0 0 0 0 0 0 0 0 0 0 0 127 0" result="hardAlpha"/>
<feOffset dy="3.76384"/>
<feGaussianBlur stdDeviation="16.9373"/>
<feComposite in2="hardAlpha" operator="out"/>
<feColorMatrix type="matrix" values="0 0 0 0 0 0 0 0 0 0 0 0 0 0 0 0 0 0 0.15 0"/>
<feBlend mode="normal" in2="BackgroundImageFix" result="effect1_dropShadow_2305_5332"/>
<feBlend mode="normal" in="SourceGraphic" in2="effect1_dropShadow_2305_5332" result="shape"/>
</filter>
<filter id="filter1_d_2305_5332" x="309.758" y="94.2799" width="269.116" height="193.837" filterUnits="userSpaceOnUse" color-interpolation-filters="sRGB">
<feFlood flood-opacity="0" result="BackgroundImageFix"/>
<feColorMatrix in="SourceAlpha" type="matrix" values="0 0 0 0 0 0 0 0 0 0 0 0 0 0 0 0 0 0 127 0" result="hardAlpha"/>
<feOffset dy="3.76384"/>
<feGaussianBlur stdDeviation="16.9373"/>
<feComposite in2="hardAlpha" operator="out"/>
<feColorMatrix type="matrix" values="0 0 0 0 0 0 0 0 0 0 0 0 0 0 0 0 0 0 0.15 0"/>
<feBlend mode="normal" in2="BackgroundImageFix" result="effect1_dropShadow_2305_5332"/>
<feBlend mode="normal" in="SourceGraphic" in2="effect1_dropShadow_2305_5332" result="shape"/>
</filter>
<filter id="filter2_d_2305_5332" x="1.12547" y="135.682" width="269.116" height="193.837" filterUnits="userSpaceOnUse" color-interpolation-filters="sRGB">
<feFlood flood-opacity="0" result="BackgroundImageFix"/>
<feColorMatrix in="SourceAlpha" type="matrix" values="0 0 0 0 0 0 0 0 0 0 0 0 0 0 0 0 0 0 127 0" result="hardAlpha"/>
<feOffset dy="3.76384"/>
<feGaussianBlur stdDeviation="16.9373"/>
<feComposite in2="hardAlpha" operator="out"/>
<feColorMatrix type="matrix" values="0 0 0 0 0 0 0 0 0 0 0 0 0 0 0 0 0 0 0.15 0"/>
<feBlend mode="normal" in2="BackgroundImageFix" result="effect1_dropShadow_2305_5332"/>
<feBlend mode="normal" in="SourceGraphic" in2="effect1_dropShadow_2305_5332" result="shape"/>
</filter>
<filter id="filter3_d_2305_5332" x="289.172" y="212.196" width="269.116" height="193.837" filterUnits="userSpaceOnUse" color-interpolation-filters="sRGB">
<feFlood flood-opacity="0" result="BackgroundImageFix"/>
<feColorMatrix in="SourceAlpha" type="matrix" values="0 0 0 0 0 0 0 0 0 0 0 0 0 0 0 0 0 0 127 0" result="hardAlpha"/>
<feOffset dy="3.76384"/>
<feGaussianBlur stdDeviation="16.9373"/>
<feComposite in2="hardAlpha" operator="out"/>
<feColorMatrix type="matrix" values="0 0 0 0 0 0 0 0 0 0 0 0 0 0 0 0 0 0 0.15 0"/>
<feBlend mode="normal" in2="BackgroundImageFix" result="effect1_dropShadow_2305_5332"/>
<feBlend mode="normal" in="SourceGraphic" in2="effect1_dropShadow_2305_5332" result="shape"/>
</filter>
<filter id="filter4_d_2305_5332" x="142.266" y="238.247" width="269.116" height="193.837" filterUnits="userSpaceOnUse" color-interpolation-filters="sRGB">
<feFlood flood-opacity="0" result="BackgroundImageFix"/>
<feColorMatrix in="SourceAlpha" type="matrix" values="0 0 0 0 0 0 0 0 0 0 0 0 0 0 0 0 0 0 127 0" result="hardAlpha"/>
<feOffset dy="3.76384"/>
<feGaussianBlur stdDeviation="16.9373"/>
<feComposite in2="hardAlpha" operator="out"/>
<feColorMatrix type="matrix" values="0 0 0 0 0 0 0 0 0 0 0 0 0 0 0 0 0 0 0.15 0"/>
<feBlend mode="normal" in2="BackgroundImageFix" result="effect1_dropShadow_2305_5332"/>
<feBlend mode="normal" in="SourceGraphic" in2="effect1_dropShadow_2305_5332" result="shape"/>
</filter>
<filter id="filter5_d_2305_5332" x="17.1255" y="31.237" width="269.116" height="193.837" filterUnits="userSpaceOnUse" color-interpolation-filters="sRGB">
<feFlood flood-opacity="0" result="BackgroundImageFix"/>
<feColorMatrix in="SourceAlpha" type="matrix" values="0 0 0 0 0 0 0 0 0 0 0 0 0 0 0 0 0 0 127 0" result="hardAlpha"/>
<feOffset dy="3.76384"/>
<feGaussianBlur stdDeviation="16.9373"/>
<feComposite in2="hardAlpha" operator="out"/>
<feColorMatrix type="matrix" values="0 0 0 0 0 0 0 0 0 0 0 0 0 0 0 0 0 0 0.15 0"/>
<feBlend mode="normal" in2="BackgroundImageFix" result="effect1_dropShadow_2305_5332"/>
<feBlend mode="normal" in="SourceGraphic" in2="effect1_dropShadow_2305_5332" result="shape"/>
</filter>
<clipPath id="clip0_2305_5332">
<rect width="580" height="429.45" fill="white"/>
</clipPath>
</defs>
</svg>
