<svg width="650" height="324" viewBox="0 0 650 324" fill="none" xmlns="http://www.w3.org/2000/svg">
<g clip-path="url(#clip0_2317_5873)">
<path d="M191.925 40.1973L204.615 27.5073L202.493 25.3848L191.25 36.6273C191.64 37.7898 191.858 38.9823 191.925 40.1973Z" fill="#D82828"/>
<path d="M187.984 31.3411C188.344 31.7011 188.674 32.0761 188.982 32.4661L209.892 11.5561L207.769 9.43359L186.859 30.3436C187.249 30.6511 187.624 30.9811 187.984 31.3411Z" fill="#D82828"/>
<path d="M182.711 28.0857L193.953 16.8432L191.831 14.7207L179.141 27.4107C180.348 27.4782 181.548 27.7032 182.711 28.0857Z" fill="#D82828"/>
<path d="M178.415 57.4919C174.17 57.4919 169.925 55.8794 166.693 52.6469C160.228 46.1819 160.228 35.6669 166.693 29.2019L178.347 17.5469L180.47 19.6694L168.815 31.3244C163.52 36.6194 163.52 45.2369 168.815 50.5319C174.11 55.8269 182.727 55.8269 188.022 50.5319L199.677 38.8769L201.8 40.9994L190.145 52.6544C186.912 55.8869 182.667 57.4994 178.423 57.4994L178.415 57.4919Z" fill="#D82828"/>
<path d="M178.418 50.022C173.513 50.022 169.523 46.032 169.523 41.127H172.523C172.523 44.3745 175.171 47.022 178.418 47.022V50.022Z" fill="#D82828"/>
<path d="M687.928 261.579L678.095 265.625C673.881 267.358 669.06 265.348 667.327 261.134L665.058 255.621C664.178 253.483 662.148 252.04 659.839 251.913L658.002 251.812L655.829 246.532L656.831 245.562C658.596 243.853 659.142 241.241 658.207 238.968L656.091 233.827C654.358 229.613 656.368 224.792 660.582 223.058L670.415 219.013" stroke="#D8262C" stroke-width="3"/>
<g clip-path="url(#clip1_2317_5873)">
<path fill-rule="evenodd" clip-rule="evenodd" d="M342.883 144.754C324.955 144.754 311.134 158.585 311.134 177.5C311.134 195.745 324.866 209.831 342.551 210.246C350.386 210.198 357.938 207.115 367.71 199.141C374.782 193.37 381.786 186.116 390.035 177.221C382.01 168.58 375.151 161.509 368.227 155.859C358.378 147.822 350.785 144.754 342.883 144.754ZM418.741 146.129C410.857 137.723 402.881 129.662 394.82 123.085C380.721 111.579 363.978 102.5 342.883 102.5C300.745 102.5 269 136.203 269 177.5C269 218.344 300.736 251.758 341.989 252.497L342.177 252.5H342.365C363.46 252.5 380.203 243.421 394.303 231.915C402.54 225.194 410.688 216.924 418.741 208.318C426.794 216.924 434.942 225.194 443.179 231.915C457.279 243.421 474.022 252.5 495.117 252.5C536.603 252.5 569 218.934 569 177.5C569 135.796 535.818 102.5 494.599 102.5C473.505 102.5 456.761 111.579 442.662 123.085C434.601 129.662 426.625 137.723 418.741 146.129ZM447.448 177.221C455.696 186.116 462.7 193.37 469.773 199.141C479.621 207.178 487.215 210.246 495.117 210.246C512.661 210.246 526.866 196.277 526.866 177.5C526.866 158.993 512.41 144.754 494.599 144.754C486.697 144.754 479.104 147.822 469.255 155.859C462.331 161.509 455.473 168.58 447.448 177.221Z" fill="#D82828"/>
</g>
<path d="M425 238.5L443 294.5" stroke="#E2B5B5" stroke-width="4" stroke-linecap="square" stroke-linejoin="bevel" stroke-dasharray="8 8"/>
<path d="M635.469 242.34L576.997 219.934" stroke="#E2B5B5" stroke-width="4" stroke-linecap="square" stroke-linejoin="bevel" stroke-dasharray="8 8"/>
<path d="M274 229.5L239 244.5" stroke="#E2B5B5" stroke-width="4" stroke-linecap="square" stroke-linejoin="bevel" stroke-dasharray="8 8"/>
<g clip-path="url(#clip2_2317_5873)">
<path d="M217.646 245.141L192.953 251.506L197.072 267.484L221.765 261.119L217.646 245.141Z" stroke="#D92327" stroke-width="3" stroke-miterlimit="10" stroke-linecap="square"/>
<path d="M201.523 254.717L203.396 261.979" stroke="#D92327" stroke-width="3" stroke-miterlimit="10"/>
<path d="M199.883 254.365L202.788 253.616" stroke="#D92327" stroke-width="3" stroke-miterlimit="10" stroke-linecap="square"/>
<path d="M201.758 261.629L204.663 260.88" stroke="#D92327" stroke-width="3" stroke-miterlimit="10" stroke-linecap="square"/>
<path d="M225.837 271.685L198.603 278.705C196.097 279.351 193.539 277.842 192.893 275.336L185.873 248.102C185.227 245.596 186.737 243.038 189.242 242.392L216.477 235.372C218.983 234.726 221.54 236.236 222.186 238.741L229.206 265.976C229.852 268.482 228.343 271.039 225.837 271.685Z" stroke="#D92327" stroke-width="3" stroke-miterlimit="10" stroke-linecap="square"/>
</g>
<path fill-rule="evenodd" clip-rule="evenodd" d="M121.587 159.056C121.19 159.175 120.772 158.949 120.653 158.553L119.575 154.961C118.981 152.98 116.886 151.852 114.906 152.447L114.188 152.662L115.05 155.536L115.768 155.32C116.164 155.201 116.583 155.426 116.702 155.823L117.779 159.415C118.023 160.227 118.526 160.884 119.162 161.349C118.887 162.088 118.829 162.913 119.073 163.725L120.15 167.317C120.269 167.713 120.044 168.132 119.647 168.251L118.929 168.466L119.791 171.34L120.509 171.124C122.49 170.53 123.618 168.435 123.024 166.455L121.946 162.863C121.827 162.466 122.052 162.048 122.449 161.929L123.167 161.713L122.305 158.84L121.587 159.056Z" fill="#D92327"/>
<path fill-rule="evenodd" clip-rule="evenodd" d="M106.647 158.84L107.725 162.432C107.844 162.829 107.618 163.247 107.222 163.366L106.503 163.582L107.366 166.455L108.084 166.24C108.48 166.121 108.899 166.346 109.018 166.743L110.095 170.334C110.69 172.315 112.784 173.443 114.765 172.849L115.483 172.633L114.621 169.76L113.903 169.975C113.506 170.094 113.088 169.869 112.969 169.472L111.891 165.88C111.648 165.069 111.144 164.412 110.508 163.946C110.783 163.208 110.842 162.382 110.598 161.57L109.521 157.978C109.402 157.582 109.627 157.164 110.023 157.045L110.742 156.829L109.88 153.956L109.161 154.171C107.181 154.765 106.053 156.86 106.647 158.84Z" fill="#D92327"/>
<path fill-rule="evenodd" clip-rule="evenodd" d="M134.46 156.293C135.244 158.905 133.756 161.669 131.144 162.453L130.539 162.634C130.42 159.498 129.983 155.745 129.018 151.345L132.649 150.256L134.46 156.293ZM110.369 178.082C108.873 176.994 104.083 172.858 99.5836 161.871C99.0137 160.477 97.8178 159.357 96.6619 158.273C95.9362 157.593 95.1963 156.899 94.6523 156.174L104.562 153.201L118.211 149.106L124.865 147.11C129.284 162.751 127.116 171.126 126.369 173.282L110.369 178.082ZM109.302 184.666L131.571 177.985L130.709 175.111L108.439 181.792L109.302 184.666ZM136.025 179.781C136.817 179.543 137.655 179.994 137.892 180.786L139.185 185.097L106.859 194.795L105.566 190.485C105.328 189.692 105.779 188.855 106.572 188.617L107.29 188.401L135.306 179.996L136.025 179.781ZM106.14 148.029C105.902 147.237 106.353 146.399 107.146 146.161L112.174 144.653C112.967 144.415 113.804 144.866 114.042 145.658L114.473 147.095L106.571 149.466L106.14 148.029ZM128.323 148.421C128.024 147.257 127.691 146.054 127.317 144.808L126.886 143.372L117.347 146.233L116.916 144.797C116.202 142.42 113.689 141.066 111.312 141.78L106.284 143.288C103.907 144.001 102.553 146.514 103.267 148.891L103.698 150.328L90.6226 154.251L91.0536 155.688C91.656 157.695 93.2238 159.165 94.6081 160.463C95.5728 161.366 96.483 162.22 96.8063 163.008C100.537 172.12 104.515 176.876 106.988 179.17C105.78 179.838 105.153 181.28 105.566 182.655L106.428 185.528L105.709 185.744C103.332 186.457 101.979 188.97 102.692 191.347L104.847 198.531L142.921 187.108L140.766 179.925C140.053 177.548 137.539 176.195 135.162 176.908L134.444 177.123L133.582 174.25C133.107 172.665 131.431 171.763 129.846 172.238L129.78 172.258C130.137 170.723 130.476 168.57 130.558 165.761L132.004 165.327C136.202 164.067 138.592 159.629 137.333 155.431L134.659 146.521L128.323 148.421Z" fill="#D92327"/>
<mask id="mask0_2317_5873" style="mask-type:luminance" maskUnits="userSpaceOnUse" x="81" y="130" width="75" height="76">
<path fill-rule="evenodd" clip-rule="evenodd" d="M98.2413 205.212L155.711 187.97L138.469 130.501L81 147.742L98.2413 205.212Z" fill="white"/>
</mask>
<g mask="url(#mask0_2317_5873)">
</g>
<path d="M609.097 53.9241L606.379 52.6558C610.776 43.2302 621.728 39.6191 631.384 44.1237C641.04 48.6286 645.309 59.3411 640.912 68.7668L634.668 82.1509L631.949 80.8825L638.193 67.4984C641.872 59.6124 638.306 50.6634 630.115 46.8424C621.925 43.0216 612.776 46.0383 609.097 53.9241Z" fill="#D8262C"/>
<path d="M640.051 55.1913C639.272 55.4744 638.412 55.0728 638.128 54.2943C637.845 53.5158 638.247 52.6551 639.025 52.372L648.308 48.9959C649.086 48.7127 649.947 49.1143 650.23 49.8929C650.513 50.6714 650.112 51.5321 649.333 51.8152L640.051 55.1913Z" fill="#D8262C"/>
<path d="M620.167 43.579C620.451 44.3575 620.049 45.2182 619.271 45.5014C618.492 45.7846 617.631 45.3831 617.348 44.6045L613.972 35.3227C613.689 34.5442 614.09 33.6835 614.869 33.4003C615.647 33.1171 616.508 33.5186 616.791 34.2972L620.167 43.579Z" fill="#D8262C"/>
<path fill-rule="evenodd" clip-rule="evenodd" d="M599.911 76.1896C605.763 80.6755 614.144 79.5677 618.63 73.7157C623.116 67.8637 622.008 59.4825 616.155 54.9965C610.304 50.511 601.923 51.619 597.438 57.4713C592.952 63.3237 594.059 71.7038 599.911 76.1896ZM614.333 57.3769C618.87 60.855 619.729 67.353 616.251 71.8899C612.773 76.4271 606.276 77.286 601.739 73.808C597.202 70.3302 596.343 63.8332 599.821 59.2956C603.298 54.7585 609.796 53.8994 614.333 57.3769Z" fill="#D8262C"/>
<path d="M621.911 78.1229L616.523 73.9932L618.348 71.6121L621.355 73.917L622.964 71.8174L637.671 83.0894L631.717 90.8571L619.185 81.2517L621.009 78.8706L631.161 86.6511L633.465 83.6455L623.52 76.0234L621.911 78.1229Z" fill="#D8262C"/>
<path d="M604.071 63.2754L601.69 61.4505C604.529 57.7461 609.832 57.0454 613.537 59.8846L611.712 62.2657C609.322 60.4343 605.902 60.8862 604.071 63.2754Z" fill="#D8262C"/>
<path fill-rule="evenodd" clip-rule="evenodd" d="M632.177 60.3806C633.311 60.9099 634.66 60.4186 635.189 59.2849C635.718 58.1505 635.227 56.8019 634.093 56.2727C632.959 55.7435 631.61 56.234 631.081 57.3684C630.552 58.5021 631.042 59.8514 632.177 60.3806Z" fill="#D8262C"/>
<path fill-rule="evenodd" clip-rule="evenodd" d="M618.411 53.9588C619.545 54.488 620.894 53.9967 621.423 52.863C621.952 51.7287 621.462 50.38 620.327 49.8508C619.193 49.3216 617.844 49.8122 617.315 50.9465C616.786 52.0802 617.277 53.4295 618.411 53.9588Z" fill="#D8262C"/>
<path d="M433.5 28L417.5 126.5" stroke="#E2B5B5" stroke-width="4" stroke-linejoin="bevel" stroke-dasharray="8 8"/>
<path d="M210 50.5L278 118.5" stroke="#E2B5B5" stroke-width="4" stroke-linecap="square" stroke-linejoin="bevel" stroke-dasharray="8 8"/>
<path d="M600.5 85.5L562.004 117.473" stroke="#E2B5B5" stroke-width="4" stroke-linecap="square" stroke-linejoin="bevel" stroke-dasharray="8 8"/>
<path d="M149 43.5L27 83.5" stroke="#E2B5B5" stroke-width="4" stroke-linecap="square" stroke-linejoin="bevel" stroke-dasharray="8 8"/>
<path d="M196 227.5L155 193.5" stroke="#E2B5B5" stroke-width="4" stroke-linecap="square" stroke-linejoin="bevel" stroke-dasharray="8 8"/>
<path d="M87 179.5L25 234.5" stroke="#E2B5B5" stroke-width="4" stroke-linecap="square" stroke-linejoin="bevel" stroke-dasharray="8 8"/>
<circle cx="11" cy="88" r="8" stroke="#E2B5B5" stroke-width="4"/>
<circle cx="437" cy="11" r="8" stroke="#E2B5B5" stroke-width="4"/>
<circle cx="448" cy="313" r="8" stroke="#E2B5B5" stroke-width="4"/>
<circle cx="11" cy="247" r="8" stroke="#E2B5B5" stroke-width="4"/>
</g>
<defs>
<clipPath id="clip0_2317_5873">
<rect width="650" height="324" fill="white"/>
</clipPath>
<clipPath id="clip1_2317_5873">
<rect width="300" height="150" fill="white" transform="translate(269 102.5)"/>
</clipPath>
<clipPath id="clip2_2317_5873">
<rect width="40.5" height="40.5" fill="white" transform="translate(182.875 242.484) rotate(-14.4545)"/>
</clipPath>
</defs>
</svg>
