<svg width="641" height="519" viewBox="0 0 641 519" fill="none" xmlns="http://www.w3.org/2000/svg">
<g clip-path="url(#clip0_2403_5393)">
<g opacity="0.87">
<g opacity="0.5" filter="url(#filter0_f_2403_5393)">
<ellipse cx="146.494" cy="9.21434" rx="146.494" ry="9.21434" transform="matrix(-1 0 0 1 576.875 446.205)" fill="url(#paint0_linear_2403_5393)" fill-opacity="0.4"/>
</g>
<g filter="url(#filter1_f_2403_5393)">
<ellipse cx="138.603" cy="11.9994" rx="138.603" ry="11.9994" transform="matrix(0.999077 -0.0429446 0.28461 0.958643 321.078 454.055)" fill="url(#paint1_linear_2403_5393)" fill-opacity="0.2"/>
</g>
<g filter="url(#filter2_f_2403_5393)">
<ellipse cx="124.432" cy="2.89594" rx="124.432" ry="2.89594" transform="matrix(-1 0 0 1 545.484 452.785)" fill="url(#paint2_radial_2403_5393)" fill-opacity="0.8"/>
</g>
<g opacity="0.5" filter="url(#filter3_f_2403_5393)">
<ellipse cx="146.494" cy="9.21434" rx="146.494" ry="9.21434" transform="matrix(-1 0 0 1 375.312 446.205)" fill="url(#paint3_linear_2403_5393)" fill-opacity="0.4"/>
</g>
<g filter="url(#filter4_f_2403_5393)">
<ellipse cx="138.603" cy="11.9994" rx="138.603" ry="11.9994" transform="matrix(0.999077 -0.0429446 0.28461 0.958643 119.516 454.055)" fill="url(#paint4_linear_2403_5393)" fill-opacity="0.2"/>
</g>
<g filter="url(#filter5_f_2403_5393)">
<ellipse cx="124.432" cy="2.89594" rx="124.432" ry="2.89594" transform="matrix(-1 0 0 1 343.922 452.785)" fill="url(#paint5_radial_2403_5393)" fill-opacity="0.8"/>
</g>
</g>
<path d="M240.659 0L216.27 124.772L189.812 0H13L129.305 454.932H294.202L319.475 331.218V0L240.659 0Z" fill="url(#paint6_linear_2403_5393)"/>
<path d="M248.399 0L223.351 124.772L198.719 0H34.0781L142.376 454.932H295.934L319.477 331.218V0H248.399Z" fill="url(#paint7_linear_2403_5393)"/>
<path d="M257.751 0L236.002 124.772L214.605 0H71.6172L165.661 454.932H299.039L319.475 331.218V0H257.751Z" fill="url(#paint8_linear_2403_5393)"/>
<path d="M273.608 0L257.464 124.772L241.545 0H135.297L205.189 454.932H304.294L319.477 331.218V0H273.608Z" fill="#6679BB"/>
<path d="M448.21 0L421.72 123.97L394.782 0H319.477V331.218L345.582 454.932H508.525L628.002 0H448.21Z" fill="url(#paint9_linear_2403_5393)"/>
<path opacity="0.8" d="M205.191 454.932H202.917L132 0H135.299L205.191 454.932Z" fill="url(#paint10_linear_2403_5393)"/>
<path opacity="0.8" d="M165.662 454.932H163.58L68.3516 0H71.4586L165.662 454.932Z" fill="url(#paint11_linear_2403_5393)"/>
<path opacity="0.6" d="M142.312 454.932H139.814L30.5234 0H34.0789L142.312 454.932Z" fill="url(#paint12_linear_2403_5393)"/>
<path opacity="0.5" d="M320.213 0H319.477V332.116H320.213V0Z" fill="url(#paint13_linear_2403_5393)"/>
</g>
<defs>
<filter id="filter0_f_2403_5393" x="233.766" y="396.089" width="393.225" height="118.661" filterUnits="userSpaceOnUse" color-interpolation-filters="sRGB">
<feFlood flood-opacity="0" result="BackgroundImageFix"/>
<feBlend mode="normal" in="SourceGraphic" in2="BackgroundImageFix" result="shape"/>
<feGaussianBlur stdDeviation="25.0582" result="effect1_foregroundBlur_2403_5393"/>
</filter>
<filter id="filter1_f_2403_5393" x="274.337" y="396.534" width="377.264" height="126.143" filterUnits="userSpaceOnUse" color-interpolation-filters="sRGB">
<feFlood flood-opacity="0" result="BackgroundImageFix"/>
<feBlend mode="normal" in="SourceGraphic" in2="BackgroundImageFix" result="shape"/>
<feGaussianBlur stdDeviation="25.0582" result="effect1_foregroundBlur_2403_5393"/>
</filter>
<filter id="filter2_f_2403_5393" x="286.617" y="442.785" width="268.867" height="25.791" filterUnits="userSpaceOnUse" color-interpolation-filters="sRGB">
<feFlood flood-opacity="0" result="BackgroundImageFix"/>
<feBlend mode="normal" in="SourceGraphic" in2="BackgroundImageFix" result="shape"/>
<feGaussianBlur stdDeviation="5" result="effect1_foregroundBlur_2403_5393"/>
</filter>
<filter id="filter3_f_2403_5393" x="32.2039" y="396.089" width="393.225" height="118.661" filterUnits="userSpaceOnUse" color-interpolation-filters="sRGB">
<feFlood flood-opacity="0" result="BackgroundImageFix"/>
<feBlend mode="normal" in="SourceGraphic" in2="BackgroundImageFix" result="shape"/>
<feGaussianBlur stdDeviation="25.0582" result="effect1_foregroundBlur_2403_5393"/>
</filter>
<filter id="filter4_f_2403_5393" x="72.7742" y="396.534" width="377.264" height="126.143" filterUnits="userSpaceOnUse" color-interpolation-filters="sRGB">
<feFlood flood-opacity="0" result="BackgroundImageFix"/>
<feBlend mode="normal" in="SourceGraphic" in2="BackgroundImageFix" result="shape"/>
<feGaussianBlur stdDeviation="25.0582" result="effect1_foregroundBlur_2403_5393"/>
</filter>
<filter id="filter5_f_2403_5393" x="85.0547" y="442.785" width="268.867" height="25.791" filterUnits="userSpaceOnUse" color-interpolation-filters="sRGB">
<feFlood flood-opacity="0" result="BackgroundImageFix"/>
<feBlend mode="normal" in="SourceGraphic" in2="BackgroundImageFix" result="shape"/>
<feGaussianBlur stdDeviation="5" result="effect1_foregroundBlur_2403_5393"/>
</filter>
<linearGradient id="paint0_linear_2403_5393" x1="273.944" y1="9.21435" x2="2.9015" y2="81.3985" gradientUnits="userSpaceOnUse">
<stop/>
<stop offset="1" stop-opacity="0"/>
</linearGradient>
<linearGradient id="paint1_linear_2403_5393" x1="259.188" y1="11.9994" x2="-5.53249" y2="63.2206" gradientUnits="userSpaceOnUse">
<stop/>
<stop offset="1" stop-opacity="0"/>
</linearGradient>
<radialGradient id="paint2_radial_2403_5393" cx="0" cy="0" r="1" gradientUnits="userSpaceOnUse" gradientTransform="translate(124.432 4.21227) rotate(180) scale(124.432 60.1688)">
<stop/>
<stop offset="0.64" stop-opacity="0.98"/>
<stop offset="1" stop-opacity="0"/>
</radialGradient>
<linearGradient id="paint3_linear_2403_5393" x1="273.944" y1="9.21435" x2="2.9015" y2="81.3985" gradientUnits="userSpaceOnUse">
<stop/>
<stop offset="1" stop-opacity="0"/>
</linearGradient>
<linearGradient id="paint4_linear_2403_5393" x1="259.188" y1="11.9994" x2="-5.53249" y2="63.2206" gradientUnits="userSpaceOnUse">
<stop/>
<stop offset="1" stop-opacity="0"/>
</linearGradient>
<radialGradient id="paint5_radial_2403_5393" cx="0" cy="0" r="1" gradientUnits="userSpaceOnUse" gradientTransform="translate(124.432 4.21227) rotate(180) scale(124.432 60.1688)">
<stop/>
<stop offset="0.64" stop-opacity="0.98"/>
<stop offset="1" stop-opacity="0"/>
</radialGradient>
<linearGradient id="paint6_linear_2403_5393" x1="97.7547" y1="242.136" x2="76.2266" y2="247.8" gradientUnits="userSpaceOnUse">
<stop offset="0.17" stop-color="#333A69"/>
<stop offset="0.32" stop-color="#373F70"/>
<stop offset="0.57" stop-color="#445085"/>
<stop offset="0.86" stop-color="#5A6AA7"/>
<stop offset="1" stop-color="#6679BB"/>
</linearGradient>
<linearGradient id="paint7_linear_2403_5393" x1="121.395" y1="237.006" x2="94.9989" y2="242.733" gradientUnits="userSpaceOnUse">
<stop offset="0.14" stop-color="#333A69"/>
<stop offset="1" stop-color="#6679BB"/>
</linearGradient>
<linearGradient id="paint8_linear_2403_5393" x1="317.457" y1="204.169" x2="123.046" y2="238.375" gradientUnits="userSpaceOnUse">
<stop offset="0.73" stop-color="#333A69"/>
<stop offset="1" stop-color="#6679BB"/>
</linearGradient>
<linearGradient id="paint9_linear_2403_5393" x1="319.24" y1="206.404" x2="609.493" y2="207.664" gradientUnits="userSpaceOnUse">
<stop offset="0.28125" stop-color="#96A5CC"/>
<stop offset="0.723958" stop-color="#A9B8DE"/>
</linearGradient>
<linearGradient id="paint10_linear_2403_5393" x1="205.352" y1="453.296" x2="132.323" y2="-0.776293" gradientUnits="userSpaceOnUse">
<stop stop-color="#333A69" stop-opacity="0.9"/>
<stop offset="0.27" stop-color="#6679BB"/>
<stop offset="0.51" stop-color="#A9B8DE"/>
<stop offset="0.76" stop-color="#5867A0"/>
<stop offset="1" stop-color="#333A69" stop-opacity="0.9"/>
</linearGradient>
<linearGradient id="paint11_linear_2403_5393" x1="153.587" y1="455.252" x2="79.9159" y2="-2.60387" gradientUnits="userSpaceOnUse">
<stop stop-color="#333A69" stop-opacity="0.9"/>
<stop offset="0.27" stop-color="#6679BB"/>
<stop offset="0.51" stop-color="#A9B8DE"/>
<stop offset="0.76" stop-color="#5867A0"/>
<stop offset="1" stop-color="#333A69" stop-opacity="0.9"/>
</linearGradient>
<linearGradient id="paint12_linear_2403_5393" x1="136.002" y1="453.745" x2="36.0778" y2="-1.42869" gradientUnits="userSpaceOnUse">
<stop stop-color="#333A69" stop-opacity="0.9"/>
<stop offset="0.27" stop-color="#6679BB"/>
<stop offset="0.51" stop-color="#A9B8DE"/>
<stop offset="0.76" stop-color="#5867A0"/>
<stop offset="1" stop-color="#333A69" stop-opacity="0.9"/>
</linearGradient>
<linearGradient id="paint13_linear_2403_5393" x1="319.477" y1="166.042" x2="320.245" y2="166.042" gradientUnits="userSpaceOnUse">
<stop stop-color="#333A69"/>
<stop offset="1" stop-color="#A9B8DE"/>
</linearGradient>
<clipPath id="clip0_2403_5393">
<rect width="641" height="519" fill="white"/>
</clipPath>
</defs>
</svg>
