<svg xmlns="http://www.w3.org/2000/svg" xmlns:xlink="http://www.w3.org/1999/xlink" width="1200" height="620"><defs><filter x="-10.1%" y="-13.1%" width="120.1%" height="126.1%" filterUnits="objectBoundingBox" id="a"><feOffset in="SourceAlpha" result="shadowOffsetOuter1"/><feGaussianBlur stdDeviation="20" in="shadowOffsetOuter1" result="shadowBlurOuter1"/><feColorMatrix values="0 0 0 0 0 0 0 0 0 0 0 0 0 0 0 0 0 0 0.05 0" in="shadowBlurOuter1"/></filter><path d="M214.699 73c5.332-41.185 40.539-73 83.176-73s77.844 31.815 83.176 73H596v386H0V73h214.699z" id="b"/></defs><g fill="none" fill-rule="evenodd"><path fill="#F4F3F0" d="M0 0h1200v620H0z"/><path d="M0 0h1200v620H0z" fill="#F4F3F0" fill-rule="nonzero"/><g fill-rule="nonzero" transform="translate(302 63)"><use fill="#000" filter="url(#a)" xlink:href="#b"/><use fill="#FFF" xlink:href="#b"/></g><path d="M864 170v-2l2 2h-2zm0 0H681.242l-.054-2H866v322H690.004v-2H864V170zm0 318h2l-2 2v-2zm0 0h2l-2 2v-2zm0 0V170H681.242l-.054-2H866v322H690.004v-2H864zm0-318v-2l2 2h-2zM336 488v2l-2-2h2zm0 0V170h183.569l.044-2H334v322h178.457v-2H336zm0-318h-2l2-2v2zm0 0h-2l2-2v2zm0 0h183.569l.044-2H334v322h178.457v-2H336V170zm0 318v2l-2-2h2z" fill="#F4F3F0" fill-rule="nonzero"/><path d="M650.26 146.53c0 27.545-22.33 49.875-49.876 49.875-27.545 0-49.875-22.33-49.875-49.875s22.33-49.875 49.875-49.875 49.875 22.33 49.875 49.875" fill="#FFF"/><path d="M600.384 97.53c-27.018 0-49 21.982-49 49s21.982 49 49 49c27.019 0 49-21.982 49-49s-21.981-49-49-49m0 99.75c-27.984 0-50.75-22.766-50.75-50.75s22.766-50.75 50.75-50.75c27.985 0 50.75 22.766 50.75 50.75s-22.765 50.75-50.75 50.75" fill="#0C3636"/><path d="M628.869 113.275a6.73 6.73 0 00-1.87.248c-2.234.646-3.928 1.986-4.773 3.773-.765 1.619-.774 3.477-.023 5.231.508 1.181 1.185 2.56 1.967 4.156 2.863 5.833 6.794 13.843 7.273 22.17 4.013-12.942 5.973-20.975 5.973-24.448 0-4.42-1.286-7.723-3.72-9.552-1.502-1.129-3.285-1.578-4.827-1.578m1.466 44.838l-1.664-.539c3.458-10.698-2.277-22.388-6.072-30.12-.793-1.618-1.48-3.016-2.004-4.24-.95-2.218-.935-4.586.049-6.665 1.062-2.247 3.146-3.92 5.866-4.708 2.028-.586 5.404-.517 8.235 1.612 2.018 1.516 4.42 4.646 4.42 10.952 0 4.382-2.888 15.408-8.83 33.708m-38.56-29.083l18.851 66.458 5.326-.772 2.392-13.048-15.908-52.638h-10.66zm17.586 68.41l-19.9-70.16h14.274l16.406 54.287-2.695 14.7-8.085 1.172zm-32.202-5.989l7.031 2.123 3.544-10.486-18.466-54.057h-10.67l18.56 62.42zm8.148 4.288l-9.557-2.884-19.499-65.574h14.268l19.063 55.804-4.275 12.654z" fill="#0C3636"/><path d="M622.762 188.133c9.093-26.404 18.483-55.002 19.085-64.237a46.94 46.94 0 015.788 22.635c0 17.962-10.077 33.612-24.873 41.602zm-32.228 4.606a1861.043 1861.043 0 007.798-22.659l7.143 23.42c-1.673.18-3.37.28-5.09.28-3.378 0-6.673-.363-9.851-1.04zm-37.4-46.208c0-4.505.648-8.859 1.83-12.989l14.967 49.074c-10.264-8.675-16.796-21.629-16.796-36.085zm16.291-15.75l16.473 54.01a1402.26 1402.26 0 01-2.093 5.98 47.245 47.245 0 01-4.702-2.076l-17.663-57.914h7.985zm24.241 0h7.986l15.71 51.516c-1.037 3.03-2.127 6.192-3.252 9.443a47.34 47.34 0 01-1.705.485l-18.739-61.444zm6.719-31.5c9.814 0 18.938 3.01 26.5 8.151-.446.07-.873.156-1.255.268-3.503 1.015-6.209 3.213-7.618 6.191-1.328 2.807-1.36 5.985-.089 8.946.698 1.631 1.689 3.485 2.737 5.446 3.787 7.09 8.974 16.797 5.95 26.152l.007.002a1201.6 1201.6 0 01-5.406 16.487l-14.173-46.482v-.661h-25.903v7h5.211l8.454 27.72a1256.255 1256.255 0 01-5.022 15.016l-15.152-49.679-.078.023v-.08h-15.56c8.05-14.592 23.587-24.5 41.397-24.5zm28.37 14.995c1.007 0 2.283.27 3.368 1.085 2.278 1.712 2.758 5.112 2.758 7.664 0 2.117-.926 6.522-2.764 13.182-1.554-4.243-3.594-8.062-5.283-11.22-1.017-1.906-1.897-3.551-2.476-4.908-.476-1.107-.483-2.213-.018-3.193.538-1.14 1.689-2.015 3.238-2.464a4.387 4.387 0 011.178-.146zm-28.37-21.995c-29.913 0-54.25 24.335-54.25 54.25 0 29.912 24.337 54.25 54.25 54.25 29.912 0 54.25-24.338 54.25-54.25 0-29.915-24.338-54.25-54.25-54.25zM509.18 272.2L495.804 317h-10.816l-9.6-32-9.6 32h-10.816l-13.376-44.8h9.28l9.632 34.368 10.016-34.368h9.888l10.016 34.368 9.632-34.368h9.12zm14.768 12.96c9.664 0 16.8 6.976 16.8 16.32 0 9.344-7.136 16.32-16.8 16.32-9.632 0-16.736-6.976-16.736-16.32 0-9.344 7.104-16.32 16.736-16.32zm0 7.776c-4.704 0-8.224 3.52-8.224 8.544 0 5.024 3.52 8.544 8.224 8.544 4.704 0 8.256-3.52 8.256-8.544 0-5.024-3.552-8.544-8.256-8.544zm38.448-7.776c1.792 0 3.2.256 4.352.672l-1.248 8.288c-1.376-.608-3.36-.992-5.056-.992-3.872 0-6.528 2.368-6.528 6.976V317h-8.352v-31.008h8.096v3.392c1.952-2.912 4.928-4.224 8.736-4.224zm20.08 0c4.16 0 7.104 1.632 9.12 4.064V270.92h8.32V317h-8.16v-3.424c-2.016 2.496-5.024 4.224-9.28 4.224-8.544 0-15.008-7.008-15.008-16.32 0-9.312 6.464-16.32 15.008-16.32zm1.536 7.776c-4.896 0-8 3.808-8 8.544 0 4.736 3.104 8.544 8 8.544 4.768 0 8-3.648 8-8.544 0-4.896-3.232-8.544-8-8.544zm41.712 7.68h-9.408V317h-8.928v-44.8h18.272c10.688 0 16.384 5.568 16.384 14.24 0 8.608-5.696 14.176-16.32 14.176zm-.224-20.192h-9.184v12.032h9.184c4.864 0 7.392-1.984 7.392-6.016 0-4-2.528-6.016-7.392-6.016zm38.288 4.736c1.792 0 3.2.256 4.352.672l-1.248 8.288c-1.376-.608-3.36-.992-5.056-.992-3.872 0-6.528 2.368-6.528 6.976V317h-8.352v-31.008h8.096v3.392c1.952-2.912 4.928-4.224 8.736-4.224zm20.752 0c8.928 0 15.04 6.624 15.072 16.288 0 .96-.064 2.112-.16 2.816h-21.984c.896 4.48 4.032 6.432 7.968 6.432 2.688 0 5.6-1.088 7.84-2.976l4.896 5.376c-3.52 3.232-8 4.704-13.216 4.704-9.504 0-16.096-6.464-16.096-16.224s6.4-16.416 15.68-16.416zm-.064 7.2c-3.936 0-6.24 2.368-6.976 6.208h13.728c-.768-3.968-3.168-6.208-6.752-6.208zm44.784-4.224l-2.816 6.496c-2.464-1.216-6.4-2.496-9.888-2.528-3.168 0-4.768 1.12-4.768 2.816 0 1.792 2.24 2.24 5.056 2.656l2.752.416c6.72 1.024 10.464 4.032 10.464 9.28 0 6.4-5.248 10.528-14.24 10.528-4.224 0-9.76-.8-13.792-3.648l3.296-6.336c2.656 1.76 5.888 3.04 10.56 3.04 3.872 0 5.728-1.088 5.728-2.912 0-1.504-1.568-2.336-5.152-2.848l-2.528-.352c-7.168-.992-10.72-4.128-10.72-9.408 0-6.368 4.928-10.144 13.088-10.144 4.96 0 8.832.928 12.96 2.944zm30.224 0l-2.816 6.496c-2.464-1.216-6.4-2.496-9.888-2.528-3.168 0-4.768 1.12-4.768 2.816 0 1.792 2.24 2.24 5.056 2.656l2.752.416c6.72 1.024 10.464 4.032 10.464 9.28 0 6.4-5.248 10.528-14.24 10.528-4.224 0-9.76-.8-13.792-3.648l3.296-6.336c2.656 1.76 5.888 3.04 10.56 3.04 3.872 0 5.728-1.088 5.728-2.912 0-1.504-1.568-2.336-5.152-2.848l-2.528-.352c-7.168-.992-10.72-4.128-10.72-9.408 0-6.368 4.928-10.144 13.088-10.144 4.96 0 8.832.928 12.96 2.944zM446.396 338.2H464.7c10.432 0 16.992 3.872 16.992 12.416 0 4.512-2.752 8.128-6.496 9.504 4.096 1.376 7.456 5.216 7.456 10.048 0 8.608-6.112 12.832-16.864 12.832h-19.392v-44.8zm18.944 26.176h-10.016v10.752l10.016.032c4.928 0 8.032-1.152 8.032-5.44 0-4.192-3.104-5.344-8.032-5.344zm-.896-18.304h-9.12v10.464h9.152c4.448 0 7.904-.928 7.904-5.28 0-4.224-3.52-5.184-7.936-5.184zm38.448 5.088c9.664 0 16.8 6.976 16.8 16.32 0 9.344-7.136 16.32-16.8 16.32-9.632 0-16.736-6.976-16.736-16.32 0-9.344 7.104-16.32 16.736-16.32zm0 7.776c-4.704 0-8.224 3.52-8.224 8.544 0 5.024 3.52 8.544 8.224 8.544 4.704 0 8.256-3.52 8.256-8.544 0-5.024-3.552-8.544-8.256-8.544zm29.968-6.944V383h-8.352v-31.008h8.352zm-4.224-15.52c3.008 0 5.344 2.368 5.344 5.376 0 3.008-2.336 5.312-5.344 5.312-3.008 0-5.312-2.304-5.312-5.312 0-3.008 2.304-5.376 5.312-5.376zm19.344.448V383h-8.352v-46.08h8.352zm20.528 14.24c8.928 0 15.04 6.624 15.072 16.288 0 .96-.064 2.112-.16 2.816h-21.984c.896 4.48 4.032 6.432 7.968 6.432 2.688 0 5.6-1.088 7.84-2.976l4.896 5.376c-3.52 3.232-8 4.704-13.216 4.704-9.504 0-16.096-6.464-16.096-16.224s6.4-16.416 15.68-16.416zm-.064 7.2c-3.936 0-6.24 2.368-6.976 6.208h13.728c-.768-3.968-3.168-6.208-6.752-6.208zm36.784-7.2c1.792 0 3.2.256 4.352.672l-1.248 8.288c-1.376-.608-3.36-.992-5.056-.992-3.872 0-6.528 2.368-6.528 6.976V383h-8.352v-31.008h8.096v3.392c1.952-2.912 4.928-4.224 8.736-4.224zm25.456 0c8.576 0 15.04 7.008 15.04 16.32 0 9.312-6.464 16.32-15.008 16.32-4.16 0-7.104-1.632-9.12-4.032V395.8h-8.32v-43.808h8.16v3.424c2.016-2.528 4.992-4.256 9.248-4.256zm-1.536 7.776c-4.736 0-7.968 3.648-7.968 8.544 0 4.896 3.232 8.544 7.968 8.544 4.928 0 8-3.808 8-8.544 0-4.736-3.072-8.544-8-8.544zm29.744-22.016V383h-8.352v-46.08h8.352zm37.296 15.072V383h-8.16v-3.424c-2.016 2.496-5.024 4.224-9.28 4.224-8.544 0-15.008-7.008-15.008-16.32 0-9.312 6.464-16.32 15.008-16.32 4.256 0 7.232 1.728 9.28 4.256v-3.424h8.16zm-15.904 6.944c-4.896 0-8 3.808-8 8.544 0 4.736 3.104 8.544 8 8.544 4.768 0 8-3.648 8-8.544 0-4.896-3.232-8.544-8-8.544zm45.168-6.944v7.424H714.22v11.328c0 3.872 2.048 5.28 4.64 5.28 1.984 0 4.128-.992 5.824-2.016l3.072 6.528c-2.72 1.856-5.856 3.264-10.272 3.264-7.68 0-11.616-4.352-11.616-12.384v-12h-5.984v-7.424h5.984v-9.216h8.352v9.216h11.232zm18.736-.832c8.928 0 15.04 6.624 15.072 16.288 0 .96-.064 2.112-.16 2.816h-21.984c.896 4.48 4.032 6.432 7.968 6.432 2.688 0 5.6-1.088 7.84-2.976l4.896 5.376c-3.52 3.232-8 4.704-13.216 4.704-9.504 0-16.096-6.464-16.096-16.224s6.4-16.416 15.68-16.416zm-.064 7.2c-3.936 0-6.24 2.368-6.976 6.208h13.728c-.768-3.968-3.168-6.208-6.752-6.208z" fill="#0C3636"/><g fill="#0C3636"><path d="M549.878 481.595c-.14-1.977-.804-3.637-2.418-3.637-1.305 0-2.303 1.543-2.451 3.637h4.87zm-2.493 9.206c-5.418 0-7.385-4.212-7.385-7.044 0-1.445.246-2.499.665-3.344.835-1.684 2.385-2.909 3.8-3.446 1.011-.383 2.32-.533 3.108-.533 3.377 0 6.346 2.15 6.894 5.34l-1.463 1.327h-8.046c.014 3.262 1.338 5.104 3.903 5.104 1.49 0 2.914-.63 3.825-1.925l.096-.137 1.131.52c-.494 1.32-2.827 4.138-6.528 4.138zm8.838-.185v-10.032l4.637-4.23v14.262zm31.392-2.555v-7.653c0-.95-.387-1.855-1.518-1.855-.736 0-1.336.246-1.834.75-.5.506-.742 1.134-.742 1.919v9.47h-3.478l-1.159-.002v-14.736l4.637-4.202v6.69c.957-1.177 2.436-1.772 4.408-1.772 1.831 0 4.322 1.213 4.322 4.552v9.468l-4.636.001v-2.63zm39.399 0v-7.653c0-.95-.387-1.855-1.518-1.855-.736 0-1.336.246-1.834.75-.5.506-.742 1.134-.742 1.919v9.47h-3.478l-1.159-.002v-14.736l4.637-4.202v6.69c.957-1.177 2.436-1.772 4.408-1.772 1.831 0 4.322 1.213 4.322 4.552v9.468l-4.636.001v-2.63zm-27.774 2.642c-2.287 0-3.636-1.374-3.636-3.095v-9.562h-2.3l6.937-6.294v4.762h3.378v1.532h-3.378v9.52c0 .905.843 1.417 1.987.141l.873.71c-.998 1.727-2.328 2.286-3.861 2.286m-29.791-13.056c-1.436 0-1.9.965-1.9 1.692 0 1.38.613 2.07 3.39 4.452 1.148-1.167 1.148-2.58 1.148-3.197 0-.923-.857-2.947-2.638-2.947m-1.097 9.89c-1.074 1.04-1.778 2.092-1.778 3.71 0 2.606 1.832 3.779 3.132 3.779a2.699 2.699 0 002.772-2.608c0-1.964-1.983-3.21-4.126-4.88m1.204 9.018c-1.285 0-2.486-.18-3.57-.534-1.1-.36-1.993-.91-2.653-1.635-.674-.74-1.015-1.635-1.015-2.66 0-.459.066-.898.198-1.314l4.366-3.998c-1.084-.852-1.869-1.613-2.492-2.386a4.726 4.726 0 01-1.08-3.035c0-.987.315-1.844.937-2.55.609-.69 1.426-1.213 2.427-1.556.986-.338 2.087-.508 3.273-.508 1.765 0 3.238.359 4.379 1.067 1.179.734 1.777 1.72 1.777 2.933 0 .941-.375 1.79-1.115 2.522-.642.636-1.571 1.259-2.768 1.854a59.323 59.323 0 012.484 1.98 9.31 9.31 0 011.718 1.979c.506.778.763 1.63.763 2.532a4.271 4.271 0 01-1.007 2.783c-.658.798-1.58 1.426-2.74 1.868-1.147.437-2.453.658-3.882.658m-10.752-21.469a2.575 2.575 0 01-2.58-2.563 2.575 2.575 0 012.58-2.562c1.423 0 2.58 1.15 2.58 2.562a2.575 2.575 0 01-2.58 2.563m75.702 15.553v-10.03l4.637-4.23v14.262zm2.581-15.553a2.575 2.575 0 01-2.58-2.563 2.575 2.575 0 012.58-2.562c1.423 0 2.58 1.15 2.58 2.562a2.575 2.575 0 01-2.58 2.563m-25.018 1.519c.689.168 1.35.55 1.928.718l1.19-.8-.13 4.517h-1.126c-.416-2.502-2.688-3.59-3.778-3.59-1.046 0-1.56.528-1.56 1.341 0 2.591 7.773 3.87 7.773 8.074 0 .778-.275 1.466-.824 2.066-.55.6-1.287 1.059-2.213 1.377-.927.317-1.95.477-3.07.477-3.43 0-6.139-.682-6.139-.682l.292-4.288 1.112.059c.606 2.818 2.165 3.675 3.766 3.675 1.34 0 2.183-.815 2.183-1.765 0-2.523-7.224-3.62-7.224-7.52 0-1.13.539-2.278 1.616-2.93 1.077-.654 2.39-.98 3.942-.98a9.61 9.61 0 012.262.25m43.388 14.317c-2.287 0-3.636-1.375-3.636-3.095v-9.563h-2.3l6.937-6.294v4.762h3.378v1.532h-3.378v9.52c0 .906.843 1.417 1.987.142l.873.71c-.998 1.726-2.329 2.286-3.861 2.286"/><path d="M647.723 476.766v-3.822c.127-.76.92-1.092 1.968.076l.872-.71c-.998-1.727-2.328-2.286-3.86-2.286-2.288 0-3.636 1.76-3.636 3.606v2.634l-2.28 2.033h2.28v4.319l.02.026v8.051h4.636v-12.396h3.893v-1.531h-3.893z"/></g></g></svg>